<svg xmlns="http://www.w3.org/2000/svg" viewBox="0 0 24 24" fill="currentColor">
  <path d="M12.504 0c-.155 0-.315.008-.48.021-4.226.333-3.105 4.807-3.17 6.298-.076 1.092-.3 1.953-1.05 3.02-.885 1.051-2.127 2.75-2.716 4.521-.278.832-.41 1.684-.287 2.489a.424.424 0 00-.11.135c-.26.268-.45.6-.663.839-.199.199-.485.267-.797.4-.313.136-.658.269-.864.68-.09.189-.136.394-.132.602 0 .199.027.4.055.536.058.399.116.728.04.97-.249.68-.28 1.145-.106 1.484.174.334.535.47.94.601.81.2 1.91.135 2.774.6.926.466 1.866.67 2.616.47.526-.116.97-.464 1.208-.946.587-.003 1.23-.269 2.26-.334.699-.058 1.574.267 2.577.2.025.134.063.198.114.333l.003.003c.391.778 1.113 1.132 1.884 1.071.771-.06 1.592-.536 2.257-1.306.631-.765 1.683-1.084 2.378-1.503.348-.199.629-.469.649-.853.023-.4-.2-.811-.714-1.376v-.097l-.003-.003c-.17-.2-.25-.535-.338-.926-.085-.401-.182-.786-.492-1.046h-.003c-.059-.054-.123-.067-.188-.135a.357.357 0 00-.19-.064c.431-1.278.264-2.55-.173-3.694-.533-1.41-1.465-2.638-2.175-3.483-.796-1.005-1.576-1.957-1.56-3.368.026-2.152.236-6.133-3.544-6.139zm.529 3.405h.013c.213 0 .396.062.584.198.19.135.33.332.438.533.105.259.158.459.166.724 0-.02.006-.04.006-.06v.105a.086.086 0 01-.004-.021l-.004-.024a1.807 1.807 0 01-.15.706.953.953 0 01-.213.335.71.71 0 00-.088-.042c-.104-.045-.198-.064-.284-.133a1.312 1.312 0 00-.22-.066c.05-.06.146-.133.183-.198.053-.128.082-.264.088-.402v-.02a1.21 1.21 0 00-.061-.4c-.045-.134-.101-.2-.183-.333-.084-.066-.167-.132-.267-.132h-.016c-.093 0-.176.03-.262.132a.8.8 0 00-.205.334 1.18 1.18 0 00-.09.468v.018c.016.066.033.132.05.2.025.067.056.133.116.2a.8.8 0 01-.176-.006.91.91 0 01-.261-.083.886.886 0 01-.212-.2 3.392 3.392 0 01-.098-.867v-.105a.312.312 0 00.006.061c.01-.264.06-.53.166-.724.108-.2.247-.398.438-.533.19-.135.37-.197.583-.197h.013zm-2.891.206c.164 0 .296.055.44.194.144.14.25.332.33.536.08.26.117.459.117.724v.04c-.006.066-.01.132-.006.2v.016l-.007.063-.003.055-.006.098a4.49 4.49 0 01-.13.663.907.907 0 01-.191.3h-.006a.638.638 0 01-.088-.034c-.104-.043-.202-.098-.292-.132a.978.978 0 00-.19-.066c.008-.066.034-.133.058-.2.025-.066.055-.133.073-.198.016-.066.023-.135.023-.198v-.02c0-.132-.02-.264-.047-.398a.793.793 0 00-.166-.335c-.084-.066-.167-.132-.262-.132h-.012c-.1 0-.18.064-.262.132a.8.8 0 00-.175.335c-.053.133-.066.265-.066.398v.022c.001.2.062.4.155.535.053.08.115.134.183.198a1.55 1.55 0 01-.286.132.996.996 0 01-.26.068 1.06 1.06 0 01-.236-.267 3.328 3.328 0 01-.118-.869v-.04c0-.264.04-.53.117-.725.08-.2.185-.396.33-.535.145-.14.277-.195.44-.195z"/>
</svg>
